<?xml version="1.0" encoding="UTF-8"?>
<svg id="Layer_2" data-name="Layer 2" xmlns="http://www.w3.org/2000/svg" viewBox="0 0 827.57 188.51">
  <defs>
    <style>
      .cls-1 {
        fill: #fff;
      }

      .cls-2 {
        fill: #091e3f;
      }

      .cls-3 {
        fill: #63f;
      }
    </style>
  </defs>
  <g id="Capa_2" data-name="Capa 2">
    <g>
      <g>
        <g>
          <path class="cls-1" d="M230.86,147.04V42.53h33.88c18.66,0,37.33,6.6,37.33,27.71,0,11.77-6.46,18.38-14.93,21.96,11.91,3.88,19.24,11.63,19.24,24.98,0,21.96-14.21,29.86-43.07,29.86h-32.45ZM250.38,58.61v27.42h16.08c8.61,0,16.08-4.31,16.08-14.07,0-9.19-7.61-13.35-18.38-13.35h-13.78ZM250.38,102.11v28.85h14.36c15.65,0,22.11-4.88,22.11-14.21s-6.32-14.64-18.38-14.64h-18.09Z"/>
          <path class="cls-1" d="M315.26,110.43c0-22.54,12.78-38.33,35.6-38.33s35.6,15.79,35.6,38.33-12.78,38.19-35.6,38.19-35.6-15.65-35.6-38.19ZM367.66,110.43c0-13.49-5.45-22.68-16.8-22.68s-16.8,9.19-16.8,22.68,5.6,22.68,16.8,22.68,16.8-9.19,16.8-22.68Z"/>
          <path class="cls-1" d="M419.48,89.33v33.16c0,6.46,3.59,10.62,9.9,10.62,2.44,0,5.31-.43,8.61-1.72l1.58,15.5c-3.3.72-9.04,1.72-14.93,1.72-16.94,0-23.97-9.04-23.97-28.28v-31.01h-11.77v-15.5h11.77v-17.94l18.81-3.73v21.68h18.66v15.5h-18.66Z"/>
          <path class="cls-1" d="M452.64,147.04V42.53h31.87c22.68,0,40.77,8.04,40.77,33.59s-18.09,33.88-40.77,33.88h-12.35v37.04h-19.52ZM472.17,59.47v33.59h12.35c11.91,0,21.25-3.88,21.25-16.94s-9.33-16.65-21.25-16.65h-12.35Z"/>
          <path class="cls-1" d="M578.68,147.62c-1.29-5.02-1.87-8.18-2.3-11.2-5.17,8.04-13.06,12.06-23.4,12.06-14.21,0-24.69-7.32-24.69-21.1,0-14.64,12.63-22.97,32.16-22.97,4.02,0,9.48.14,14.5.72v-2.58c0-10.05-5.6-14.79-13.64-14.79-6.46,0-11.91,3.45-14.21,7.46l-14.93-8.04c4.59-8.47,16.22-15.07,30.86-15.07,18.95,0,30.29,9.76,30.29,32.3v18.81c0,8.33.57,13.49,3.01,22.68l-17.66,1.72ZM574.95,116.75c-4.88-.43-10.05-.57-13.21-.57-9.05,0-15.22,3.3-15.22,9.62s4.45,9.62,10.91,9.62c8.04,0,15.07-4.88,16.65-11.92.43-1.72.72-3.73.86-6.75Z"/>
          <path class="cls-1" d="M629.07,124.36l-3.59,4.02c-1.44,1.58-2.01,2.58-2.01,3.59s.86,1.72,2.58,1.72h20.67c19.67,0,27.28,9.33,27.28,20.1,0,13.92-11.34,26.27-37.9,26.27s-36.03-7.75-37.9-20.67l17.95-3.59c0,6.75,6.89,11.05,19.95,11.05s19.09-5.31,19.09-10.62c0-4.59-3.45-7.32-11.05-7.32h-21.25c-10.91,0-16.65-5.6-16.65-14.36,0-4.31,1.72-8.04,7.61-14.36l1.58-1.72c-6.32-4.88-10.34-11.92-10.34-20.24,0-15.65,13.49-26.13,30.86-26.13,6.32,0,11.92,1.72,16.65,4.31l9.62-10.77,12.49,8.9-11.49,12.92c2.15,3.3,3.59,7.46,3.59,11.63,0,15.65-13.5,25.84-30.87,25.84-2.44,0-4.74-.14-6.89-.57ZM648.88,98.66c0-7.47-5.6-13.06-12.92-13.06s-12.92,5.6-12.92,13.06,5.6,13.06,12.92,13.06,12.92-5.6,12.92-13.06Z"/>
          <path class="cls-1" d="M676.87,110.43c0-22.4,12.63-38.33,35.6-38.33s34.02,16.22,34.02,42.92h-51.39c1.29,11.63,7.47,19.38,17.37,19.38,8.04,0,12.49-4.45,15.5-10.19l16.65,4.16c-5.17,11.77-15.65,20.39-32.16,20.39-23.11,0-35.6-15.94-35.6-38.33ZM695.39,103.26h32.73c-1.15-10.91-7.18-16.94-15.65-16.94-9.33,0-15.36,6.32-17.08,16.94Z"/>
          <path class="cls-1" d="M758.69,147.04v-73.22h15.65v15.5c3.3-9.62,9.62-16.8,20.67-16.8,2.73,0,5.45.43,8.18,1.29l-3.3,17.95c-2.15-.72-4.16-1.15-6.46-1.15-7.61,0-12.92,5.31-14.79,13.06-.72,3.73-1.15,7.18-1.15,12.92v30.44h-18.81Z"/>
        </g>
        <g>
          <path class="cls-1" d="M813.91,72.11v-7.26h-2.28v-1.51h6.18v1.51h-2.28v7.26h-1.63Z"/>
          <path class="cls-1" d="M818.95,72.11v-8.77h1.96l2.35,4.93,2.35-4.93h1.96v8.77h-1.61v-6.24l-2.12,4.44h-1.14l-2.13-4.46v6.25h-1.61Z"/>
        </g>
      </g>
      <g>
        <rect class="cls-3" x="0" width="188.51" height="188.51" rx="57.17" ry="57.17"/>
        <g>
          <path class="cls-1" d="M33.72,152.12c-2.22-.02-4.2-1.36-5.04-3.4-.82-1.99-.42-4.26,1.04-5.84l14.61-17.67c-1.24-1.03-2.02-2.59-2-4.32,0-.92.24-1.81.67-2.59-4.14-.7-7.92-3.41-10.65-7.64-2.58-3.99-4.07-9.12-4.2-14.44-.13-5.83,1.36-11.39,4.18-15.66,3.08-4.65,7.37-7.27,12.09-7.38.09,0,.18,0,.26,0,.31,0,.61.01.92.03,3.4-7.5,8.45-14.3,14.69-19.73,6.15-5.36,13.47-9.4,21.25-11.75.01-.38.04-.76.08-1.15.75-6.95,6.57-12.3,13.55-12.44.13,0,.24,0,.34,0,.1,0,.2,0,.3,0,.11,0,.2,0,.3.01h.03c.15,0,.29.02.44.03,6.63.49,11.96,5.7,12.77,12.19,8.25,1.61,15.9,4.95,22.73,9.91,6.24,4.53,11.6,10.38,15.59,16.99,7.44.76,13.98,8.01,15.96,17.86l.15.3v.51c.13.71.23,1.43.3,2.15.53,5.18-.27,10.36-2.24,14.58v.03s-.04.07-.04.07c-1.28,2.71-2.96,4.92-5.01,6.57-.07.06-.15.12-.23.18-.11.08-.23.17-.35.25l-.89.63h-.07c-.41.25-.83.48-1.27.7-.29.96-.61,1.93-.97,2.88-3.56,9.5-10.23,16.94-19.81,22.14-.05.03-.11.06-.17.09-1.75.94-3.59,1.8-5.45,2.56-.05.02-.12.05-.21.08-.94.35-1.96.7-3.11,1.08l-.09.03c-.25.08-.5.16-.76.24l-.12.04c-.25.08-.5.16-.75.23-1.23.38-2.54.76-3.89,1.14h0s-.05.01-.05.01h-.02s-.3.09-.3.09c-18.55,5.12-45.95,9.55-47.11,9.74l-.17.03h-.17c-.11.02-.22.02-.32.02-2.06,0-3.94-1.14-4.89-2.98-.39-.75-.59-1.55-.62-2.36l-30.94,5.96h-.34Z"/>
          <g>
            <path d="M101.55,81.98c-.65-7.54-5.43-13.29-10.67-12.84-5.24.45-8.96,6.93-8.31,14.48.65,7.54,5.43,13.28,10.67,12.83,5.24-.45,8.96-6.93,8.32-14.47ZM119.97,100.5l-16.95,1.08c-1.01.06-1.73,1.07-1.41,2.03,1.27,3.94,5.55,6.68,10.45,6.36,4.91-.31,8.81-3.57,9.57-7.64.19-1-.65-1.9-1.66-1.83ZM133.89,79.84c-.84-7.11-5.53-12.4-10.47-11.81-4.95.58-8.27,6.82-7.43,13.93.84,7.11,5.53,12.4,10.47,11.82,4.94-.58,8.27-6.82,7.42-13.93ZM133.89,79.84c-.84-7.11-5.53-12.4-10.47-11.81-4.95.58-8.27,6.82-7.43,13.93.84,7.11,5.53,12.4,10.47,11.82,4.94-.58,8.27-6.82,7.42-13.93ZM119.97,100.5l-16.95,1.08c-1.01.06-1.73,1.07-1.41,2.03,1.27,3.94,5.55,6.68,10.45,6.36,4.91-.31,8.81-3.57,9.57-7.64.19-1-.65-1.9-1.66-1.83ZM90.87,69.15c-5.24.45-8.96,6.93-8.31,14.48.65,7.54,5.43,13.28,10.67,12.83,5.24-.45,8.96-6.93,8.32-14.47-.65-7.54-5.43-13.29-10.67-12.84ZM126.47,93.77c4.94-.58,8.27-6.82,7.42-13.93-.84-7.11-5.53-12.4-10.47-11.81-4.95.58-8.27,6.82-7.43,13.93.84,7.11,5.53,12.4,10.47,11.82ZM126.24,135.65c-2.5.93-5.53,1.87-8.86,2.79,3.09-.74,6.06-1.66,8.86-2.79ZM119.97,100.5l-16.95,1.08c-1.01.06-1.73,1.07-1.41,2.03,1.27,3.94,5.55,6.68,10.45,6.36,4.91-.31,8.81-3.57,9.57-7.64.19-1-.65-1.9-1.66-1.83ZM90.87,69.15c-5.24.45-8.96,6.93-8.31,14.48.65,7.54,5.43,13.28,10.67,12.83,5.24-.45,8.96-6.93,8.32-14.47-.65-7.54-5.43-13.29-10.67-12.84ZM101.55,81.98c-.65-7.54-5.43-13.29-10.67-12.84-5.24.45-8.96,6.93-8.31,14.48.65,7.54,5.43,13.28,10.67,12.83,5.24-.45,8.96-6.93,8.32-14.47ZM119.97,100.5l-16.95,1.08c-1.01.06-1.73,1.07-1.41,2.03,1.27,3.94,5.55,6.68,10.45,6.36,4.91-.31,8.81-3.57,9.57-7.64.19-1-.65-1.9-1.66-1.83ZM133.89,79.84c-.84-7.11-5.53-12.4-10.47-11.81-4.95.58-8.27,6.82-7.43,13.93.84,7.11,5.53,12.4,10.47,11.82,4.94-.58,8.27-6.82,7.42-13.93Z"/>
            <path class="cls-2" d="M126.47,93.77c-4.95.58-9.63-4.7-10.47-11.82-.84-7.11,2.48-13.35,7.43-13.93,4.94-.58,9.63,4.71,10.47,11.81.84,7.11-2.48,13.35-7.42,13.93Z"/>
            <path class="cls-2" d="M93.23,96.45c-5.24.45-10.02-5.29-10.67-12.83-.65-7.54,3.07-14.02,8.31-14.48,5.24-.45,10.02,5.29,10.67,12.84.65,7.54-3.08,14.02-8.32,14.47Z"/>
            <path class="cls-2" d="M121.63,102.33c-.76,4.08-4.67,7.33-9.57,7.64-4.9.31-9.19-2.42-10.45-6.36-.31-.97.4-1.97,1.41-2.03l16.95-1.08c1.01-.07,1.85.83,1.66,1.83Z"/>
            <path class="cls-2" d="M160.7,88.43c-1.07-10.43-7.76-18.33-15.01-17.81-7.73-13.87-21.36-24.03-37.54-27.02h0c-.72-.14-1.45-.26-2.19-.36-2.48-.36-5.02-.54-7.6-.54-1.07,0-2.14.03-3.19.1h0s-.12-.14-.05-.25c1.25-.54,4.62-1.66,10.24-1.16.33.03.63-.25.59-.58-.57-4.76-4.37-8.68-9.34-9.21-5.8-.62-11,3.56-11.62,9.35-.09.87-.09,1.72.03,2.55.06.44-.19.85-.62.96-16.42,4.3-29.82,16.09-36.3,31.52-.26.59-.87.93-1.49.8-.7-.14-1.41-.21-2.12-.19-7.39.17-13.18,8.93-12.95,19.56.23,9.78,5.48,17.75,12.09,18.82.57.09,1.15.14,1.75.12.42-.01.84-.05,1.25-.11.24-.03.47-.09.71-.14,2.84-.66,5.37-2.63,7.27-5.44.16-.23.5-.06.42.2-.38,1.12-.92,2.34-3.5,5.06-1.73,1.81-5.16,4.81-5.16,4.81-.43.39-.63.95-.63,1.48-.01,1.01.7,1.99,1.86,2.14l2.65.34-17.97,21.72c-1.31,1.33-.38,3.58,1.49,3.6l20.13-3.88,20-3.85-5.1,3.77c-1.02,1.45.09,3.44,1.86,3.34,0,0,28.16-4.53,46.74-9.66,3.33-.92,6.36-1.86,8.85-2.79.02,0,.06-.02.08-.03,1.79-.72,3.5-1.53,5.14-2.41.01,0,.02-.01.03-.02,8.46-4.56,14.94-11.31,18.36-20.4.51-1.35.95-2.75,1.31-4.2.89-3.5,1.36-7.3,1.37-11.42.01-1.22-.04-2.42-.11-3.62h.01s.04-.23.34-.09c.8,1.91,2.4,6.79,1,13.16-.07.31.27.55.53.36,4.53-3.36,7.23-10.56,6.42-18.55ZM101.44,123.24c-25.8-.08-41.56-1.34-41.48-27.69.07-26.35,15.9-47.69,41.7-47.61,25.79.07,46.64,21.5,46.56,47.87-.07,26.36-20.99,27.51-46.78,27.44Z"/>
          </g>
        </g>
      </g>
    </g>
  </g>
</svg>